<svg id="Layer_1" data-name="Layer 1" xmlns="http://www.w3.org/2000/svg" viewBox="0 0 60 60"><defs><style>.cls-1{fill:#333;}</style></defs><title>ishurei_icons</title><path class="cls-1" d="M32,32H46a2,2,0,0,0,1.18-.73,1.82,1.82,0,0,0,0-2.48,1.36,1.36,0,0,0-1-.55H32l-3.65,0H14a1.66,1.66,0,0,0-1.18.48,2,2,0,0,0,0,2.59A1.94,1.94,0,0,0,14,32H32Z"/><path class="cls-1" d="M28,32v14a2,2,0,0,0,.72,1.18,1.81,1.81,0,0,0,2.47,0,1.35,1.35,0,0,0,.54-1V32l0-3.65V14a1.66,1.66,0,0,0-.48-1.18,2,2,0,0,0-2.58,0A1.93,1.93,0,0,0,28,14V32Z"/></svg>